<?xml version="1.0" encoding="utf-8"?><!-- Uploaded to: SVG Repo, www.svgrepo.com, Generator: SVG Repo Mixer Tools -->
<svg width="800px" height="800px" viewBox="0 0 400 400" fill="none" xmlns="http://www.w3.org/2000/svg">
<path d="M125.655 162.614C139.595 153.391 154.928 153.962 171.317 150.092C214.492 139.895 315.556 169.731 245.976 208.011C219.748 222.441 53.9626 246.644 117.84 178.203" stroke="#000000" stroke-opacity="0.9" stroke-width="16" stroke-linecap="round" stroke-linejoin="round"/>
<path d="M277.316 255.494C255.307 291.795 109.005 308.113 103.305 265.277" stroke="#000000" stroke-opacity="0.9" stroke-width="16" stroke-linecap="round" stroke-linejoin="round"/>
<path d="M102.953 205.184C101.48 223.381 103.248 258.096 102.953 263.653" stroke="#000000" stroke-opacity="0.9" stroke-width="16" stroke-linecap="round" stroke-linejoin="round"/>
<path d="M158.786 232.378C158.5 248.081 155.421 265.354 156.489 281.329" stroke="#000000" stroke-opacity="0.9" stroke-width="16" stroke-linecap="round" stroke-linejoin="round"/>
<path d="M219.338 225.579C218.833 237.166 219.734 259.024 219.338 271.811" stroke="#000000" stroke-opacity="0.9" stroke-width="16" stroke-linecap="round" stroke-linejoin="round"/>
<path d="M271.533 184.787C274.666 207.627 277.971 236.122 276.383 255.494" stroke="#000000" stroke-opacity="0.9" stroke-width="16" stroke-linecap="round" stroke-linejoin="round"/>
<path d="M97 110C127.831 137.104 160.149 164.882 186.528 195.665" stroke="#000000" stroke-opacity="0.9" stroke-width="16" stroke-linecap="round" stroke-linejoin="round"/>
<path d="M303.796 110C269.461 132.715 230.578 150.753 197.876 175.268" stroke="#000000" stroke-opacity="0.9" stroke-width="16" stroke-linecap="round" stroke-linejoin="round"/>
</svg>