<?xml version="1.0" standalone="no"?>
<!DOCTYPE svg PUBLIC "-//W3C//DTD SVG 20010904//EN"
 "http://www.w3.org/TR/2001/REC-SVG-20010904/DTD/svg10.dtd">
<svg version="1.0" xmlns="http://www.w3.org/2000/svg"
 width="368.000000pt" height="368.000000pt" viewBox="0 0 368.000000 368.000000"
 preserveAspectRatio="xMidYMid meet">
<metadata>
Created by potrace 1.14, written by Peter Selinger 2001-2017
</metadata>
<g transform="translate(0.000000,368.000000) scale(0.100000,-0.100000)"
fill="#000000" stroke="none">
<path d="M1757 3655 c-1 -1 -44 -5 -95 -8 -51 -4 -97 -9 -101 -11 -4 -3 -30
-7 -58 -10 -58 -7 -242 -57 -323 -88 -325 -123 -641 -377 -858 -687 -68 -97
-172 -309 -211 -429 -63 -192 -86 -352 -85 -592 1 -189 10 -273 45 -420 33
-142 92 -297 151 -404 159 -282 339 -486 587 -663 105 -75 141 -97 257 -152
134 -65 329 -126 464 -147 14 -2 45 -7 70 -11 62 -10 400 -10 482 0 82 10 102
13 187 33 36 9 73 17 82 19 47 9 245 85 299 114 115 61 248 145 302 190 125
102 225 202 332 332 46 55 159 240 204 333 67 138 119 292 138 411 3 22 8 43
10 46 17 29 26 435 11 554 -19 159 -55 301 -115 450 -159 399 -511 775 -901
962 -91 44 -281 117 -281 108 0 -3 -12 0 -27 6 -54 20 -176 43 -298 55 -60 5
-263 12 -268 9z"/>
</g>
</svg>
